<svg xmlns="http://www.w3.org/2000/svg" xmlns:xlink="http://www.w3.org/1999/xlink" width="500" zoomAndPan="magnify" viewBox="0 0 375 374.999991" height="500" preserveAspectRatio="xMidYMid meet" version="1.0"><defs><g/></defs><g fill="#ff5542" fill-opacity="1"><g transform="translate(75.309969, 202.235348)"><g><path d="M 32.671875 -27.859375 L 21.96875 -27.859375 L 21.96875 0 L 11.984375 0 L 11.984375 -27.859375 L 1.234375 -27.859375 L 1.234375 -36.09375 L 32.671875 -36.09375 Z M 32.671875 -27.859375 "/></g></g></g><g fill="#ff5542" fill-opacity="1"><g transform="translate(108.845404, 202.235348)"><g><path d="M 31.796875 -27.90625 L 31.796875 0 L 22.125 0 L 22.125 -1.484375 C 21.0625 -0.867188 19.96875 -0.378906 18.84375 -0.015625 C 17.71875 0.335938 16.554688 0.515625 15.359375 0.515625 C 13.109375 0.515625 11.128906 0.0976562 9.421875 -0.734375 C 7.710938 -1.578125 6.296875 -2.671875 5.171875 -4.015625 C 4.046875 -5.367188 3.203125 -6.914062 2.640625 -8.65625 C 2.078125 -10.394531 1.796875 -12.164062 1.796875 -13.96875 C 1.796875 -15.78125 2.078125 -17.554688 2.640625 -19.296875 C 3.203125 -21.046875 4.046875 -22.59375 5.171875 -23.9375 C 6.296875 -25.28125 7.710938 -26.367188 9.421875 -27.203125 C 11.128906 -28.046875 13.109375 -28.46875 15.359375 -28.46875 C 16.484375 -28.46875 17.617188 -28.3125 18.765625 -28 C 19.910156 -27.695312 21.03125 -27.273438 22.125 -26.734375 L 22.125 -27.90625 Z M 22.125 -18.328125 C 21.4375 -18.878906 20.664062 -19.304688 19.8125 -19.609375 C 18.957031 -19.921875 18.070312 -20.078125 17.15625 -20.078125 C 15.789062 -20.078125 14.65625 -19.773438 13.75 -19.171875 C 12.84375 -18.578125 12.164062 -17.816406 11.71875 -16.890625 C 11.28125 -15.972656 11.0625 -14.992188 11.0625 -13.953125 C 11.0625 -12.910156 11.289062 -11.925781 11.75 -11 C 12.207031 -10.082031 12.890625 -9.320312 13.796875 -8.71875 C 14.703125 -8.125 15.820312 -7.828125 17.15625 -7.828125 C 18.070312 -7.828125 18.957031 -7.976562 19.8125 -8.28125 C 20.664062 -8.59375 21.4375 -9.023438 22.125 -9.578125 Z M 22.125 -18.328125 "/></g></g></g><g fill="#ff5542" fill-opacity="1"><g transform="translate(142.995238, 202.235348)"><g><path d="M 12.34375 -25.140625 C 13.394531 -26.128906 14.640625 -26.921875 16.078125 -27.515625 C 17.515625 -28.117188 19.203125 -28.421875 21.140625 -28.421875 L 21.140625 -18.125 C 20.628906 -18.195312 20.144531 -18.253906 19.6875 -18.296875 C 19.226562 -18.347656 18.789062 -18.375 18.375 -18.375 C 17.144531 -18.375 16.140625 -18.203125 15.359375 -17.859375 C 14.578125 -17.523438 13.972656 -17.101562 13.546875 -16.59375 C 13.117188 -16.082031 12.816406 -15.5 12.640625 -14.84375 C 12.472656 -14.195312 12.375 -13.566406 12.34375 -12.953125 L 12.34375 0 L 2.65625 0 L 2.65625 -27.90625 L 12.34375 -27.90625 Z M 12.34375 -25.140625 "/></g></g></g><g fill="#ff5542" fill-opacity="1"><g transform="translate(164.652448, 202.235348)"><g><path d="M 43.46875 -27.90625 L 33.234375 0 L 28.578125 0 L 22.0625 -14.28125 L 15.515625 0 L 10.90625 0 L 0.609375 -27.90625 L 10.1875 -27.90625 L 14.4375 -15.3125 L 19.765625 -27.90625 L 24.328125 -27.90625 L 29.640625 -15.3125 L 33.953125 -27.90625 Z M 43.46875 -27.90625 "/></g></g></g><g fill="#ff5542" fill-opacity="1"><g transform="translate(208.47894, 202.235348)"><g><path d="M 29.4375 -11.3125 L 11.15625 -11.3125 C 11.53125 -10.125 12.195312 -9.082031 13.15625 -8.1875 C 14.113281 -7.300781 15.359375 -6.859375 16.890625 -6.859375 C 18.054688 -6.859375 19.125 -7.164062 20.09375 -7.78125 C 21.070312 -8.394531 21.898438 -9.25 22.578125 -10.34375 L 28.625 -5.421875 C 27.320312 -3.578125 25.570312 -2.125 23.375 -1.0625 C 21.175781 -0.0078125 18.675781 0.515625 15.875 0.515625 C 13.757812 0.515625 11.820312 0.140625 10.0625 -0.609375 C 8.300781 -1.359375 6.789062 -2.390625 5.53125 -3.703125 C 4.269531 -5.023438 3.285156 -6.554688 2.578125 -8.296875 C 1.878906 -10.035156 1.53125 -11.910156 1.53125 -13.921875 C 1.53125 -15.941406 1.878906 -17.828125 2.578125 -19.578125 C 3.285156 -21.335938 4.269531 -22.875 5.53125 -24.1875 C 6.789062 -25.507812 8.300781 -26.546875 10.0625 -27.296875 C 11.820312 -28.046875 13.757812 -28.421875 15.875 -28.421875 C 18.019531 -28.421875 19.925781 -28.046875 21.59375 -27.296875 C 23.269531 -26.546875 24.695312 -25.503906 25.875 -24.171875 C 27.0625 -22.835938 27.960938 -21.238281 28.578125 -19.375 C 29.191406 -17.519531 29.5 -15.5 29.5 -13.3125 Z M 20.375 -16.75 C 20.375 -17.1875 20.320312 -17.660156 20.21875 -18.171875 C 20.125 -18.679688 19.910156 -19.148438 19.578125 -19.578125 C 19.253906 -20.003906 18.800781 -20.351562 18.21875 -20.625 C 17.644531 -20.90625 16.863281 -21.046875 15.875 -21.046875 C 14.707031 -21.046875 13.722656 -20.625 12.921875 -19.78125 C 12.117188 -18.945312 11.53125 -17.9375 11.15625 -16.75 Z M 20.375 -16.75 "/></g></g></g><g fill="#ff5542" fill-opacity="1"><g transform="translate(239.198417, 202.235348)"><g><path d="M 29.4375 -11.3125 L 11.15625 -11.3125 C 11.53125 -10.125 12.195312 -9.082031 13.15625 -8.1875 C 14.113281 -7.300781 15.359375 -6.859375 16.890625 -6.859375 C 18.054688 -6.859375 19.125 -7.164062 20.09375 -7.78125 C 21.070312 -8.394531 21.898438 -9.25 22.578125 -10.34375 L 28.625 -5.421875 C 27.320312 -3.578125 25.570312 -2.125 23.375 -1.0625 C 21.175781 -0.0078125 18.675781 0.515625 15.875 0.515625 C 13.757812 0.515625 11.820312 0.140625 10.0625 -0.609375 C 8.300781 -1.359375 6.789062 -2.390625 5.53125 -3.703125 C 4.269531 -5.023438 3.285156 -6.554688 2.578125 -8.296875 C 1.878906 -10.035156 1.53125 -11.910156 1.53125 -13.921875 C 1.53125 -15.941406 1.878906 -17.828125 2.578125 -19.578125 C 3.285156 -21.335938 4.269531 -22.875 5.53125 -24.1875 C 6.789062 -25.507812 8.300781 -26.546875 10.0625 -27.296875 C 11.820312 -28.046875 13.757812 -28.421875 15.875 -28.421875 C 18.019531 -28.421875 19.925781 -28.046875 21.59375 -27.296875 C 23.269531 -26.546875 24.695312 -25.503906 25.875 -24.171875 C 27.0625 -22.835938 27.960938 -21.238281 28.578125 -19.375 C 29.191406 -17.519531 29.5 -15.5 29.5 -13.3125 Z M 20.375 -16.75 C 20.375 -17.1875 20.320312 -17.660156 20.21875 -18.171875 C 20.125 -18.679688 19.910156 -19.148438 19.578125 -19.578125 C 19.253906 -20.003906 18.800781 -20.351562 18.21875 -20.625 C 17.644531 -20.90625 16.863281 -21.046875 15.875 -21.046875 C 14.707031 -21.046875 13.722656 -20.625 12.921875 -19.78125 C 12.117188 -18.945312 11.53125 -17.9375 11.15625 -16.75 Z M 20.375 -16.75 "/></g></g></g><g fill="#ff5542" fill-opacity="1"><g transform="translate(269.917905, 202.235348)"><g><path d="M 2.8125 -27.90625 L 12.5 -27.90625 L 12.5 0.671875 C 12.5 2.171875 12.265625 3.488281 11.796875 4.625 C 11.335938 5.769531 10.707031 6.726562 9.90625 7.5 C 9.101562 8.269531 8.171875 8.84375 7.109375 9.21875 C 6.054688 9.59375 4.929688 9.78125 3.734375 9.78125 C 2.609375 9.78125 1.617188 9.726562 0.765625 9.625 C -0.0859375 9.519531 -0.800781 9.382812 -1.375 9.21875 L -1.375 1.84375 L -0.921875 1.84375 C -0.00390625 1.84375 0.707031 1.753906 1.21875 1.578125 C 1.738281 1.410156 2.117188 1.097656 2.359375 0.640625 C 2.597656 0.179688 2.734375 -0.4375 2.765625 -1.21875 C 2.796875 -2.007812 2.8125 -3.003906 2.8125 -4.203125 Z M 7.625 -29.75 C 6.90625 -29.75 6.222656 -29.882812 5.578125 -30.15625 C 4.929688 -30.425781 4.359375 -30.800781 3.859375 -31.28125 C 3.367188 -31.757812 2.984375 -32.320312 2.703125 -32.96875 C 2.429688 -33.625 2.296875 -34.304688 2.296875 -35.015625 C 2.296875 -35.734375 2.429688 -36.414062 2.703125 -37.0625 C 2.984375 -37.71875 3.367188 -38.285156 3.859375 -38.765625 C 4.359375 -39.242188 4.929688 -39.617188 5.578125 -39.890625 C 6.222656 -40.160156 6.90625 -40.296875 7.625 -40.296875 C 8.34375 -40.296875 9.023438 -40.160156 9.671875 -39.890625 C 10.328125 -39.617188 10.890625 -39.242188 11.359375 -38.765625 C 11.835938 -38.285156 12.210938 -37.71875 12.484375 -37.0625 C 12.765625 -36.414062 12.90625 -35.734375 12.90625 -35.015625 C 12.90625 -34.304688 12.765625 -33.625 12.484375 -32.96875 C 12.210938 -32.320312 11.835938 -31.757812 11.359375 -31.28125 C 10.890625 -30.800781 10.328125 -30.425781 9.671875 -30.15625 C 9.023438 -29.882812 8.34375 -29.75 7.625 -29.75 Z M 7.625 -29.75 "/></g></g></g><g fill="#ff5542" fill-opacity="1"><g transform="translate(285.124012, 202.235348)"><g><path d="M 12.59375 -4.765625 C 12.59375 -4.015625 12.457031 -3.3125 12.1875 -2.65625 C 11.914062 -2.007812 11.53125 -1.445312 11.03125 -0.96875 C 10.539062 -0.488281 9.96875 -0.113281 9.3125 0.15625 C 8.664062 0.425781 7.984375 0.5625 7.265625 0.5625 C 6.554688 0.5625 5.875 0.425781 5.21875 0.15625 C 4.570312 -0.113281 4.007812 -0.488281 3.53125 -0.96875 C 3.050781 -1.445312 2.675781 -2.007812 2.40625 -2.65625 C 2.132812 -3.3125 2 -4.015625 2 -4.765625 C 2 -5.484375 2.132812 -6.164062 2.40625 -6.8125 C 2.675781 -7.457031 3.050781 -8.019531 3.53125 -8.5 C 4.007812 -8.976562 4.570312 -9.351562 5.21875 -9.625 C 5.875 -9.894531 6.554688 -10.03125 7.265625 -10.03125 C 7.984375 -10.03125 8.664062 -9.894531 9.3125 -9.625 C 9.96875 -9.351562 10.539062 -8.976562 11.03125 -8.5 C 11.53125 -8.019531 11.914062 -7.457031 12.1875 -6.8125 C 12.457031 -6.164062 12.59375 -5.484375 12.59375 -4.765625 Z M 12.59375 -4.765625 "/></g></g></g></svg>